<svg width="24" height="24" viewBox="0 0 24 24" fill="none" xmlns="http://www.w3.org/2000/svg">
<g clip-path="url(#clip0_929_2151)">
<path d="M23.998 11.978V12.001C23.998 18.628 18.626 24 11.999 24C9.24847 24.0044 6.58068 23.0596 4.44601 21.325L4.46801 21.343C4.34166 21.2404 4.23827 21.1125 4.16454 20.9674C4.0908 20.8223 4.04837 20.6633 4.03998 20.5008C4.03159 20.3383 4.05743 20.1758 4.11583 20.0239C4.17424 19.872 4.2639 19.7341 4.37901 19.619L4.92401 19.074C5.12507 18.871 5.39387 18.7492 5.67906 18.7319C5.96425 18.7145 6.24583 18.8029 6.47001 18.98L6.46801 18.978C8.03944 20.2287 9.98962 20.9076 11.998 20.903C13.4507 20.903 14.8814 20.5475 16.1651 19.8676C17.4489 19.1876 18.5467 18.2039 19.3629 17.0021C20.1791 15.8004 20.6889 14.4172 20.8476 12.9732C21.0064 11.5291 20.8095 10.0682 20.2739 8.71783C19.7383 7.36745 18.8805 6.16863 17.7752 5.22596C16.6698 4.2833 15.3506 3.62543 13.9326 3.30975C12.5146 2.99408 11.0409 3.03019 9.64009 3.41493C8.23925 3.79967 6.95384 4.52135 5.89601 5.51701L5.90101 5.51301L8.35701 7.96901C8.46519 8.07732 8.53883 8.21527 8.56861 8.36542C8.5984 8.51558 8.58299 8.67119 8.52433 8.81259C8.46567 8.95399 8.36641 9.07482 8.23908 9.1598C8.11175 9.24478 7.96209 9.29009 7.80901 9.29001H0.775007C0.56973 9.29001 0.37286 9.20847 0.227706 9.06331C0.0825533 8.91816 0.00100708 8.72129 0.00100708 8.51601V1.48201C0.00140269 1.32915 0.0469986 1.17981 0.132058 1.05279C0.217118 0.925772 0.337843 0.826746 0.479044 0.76817C0.620245 0.709595 0.775615 0.694086 0.925609 0.723596C1.0756 0.753105 1.21352 0.826315 1.32201 0.934013L3.71101 3.32301C5.94104 1.18622 8.9115 -0.00461503 12 1.34418e-05C18.619 1.34418e-05 23.987 5.36001 23.999 11.976V11.977L23.998 11.978ZM15.245 15.789L15.72 15.178C15.8139 15.058 15.8832 14.9205 15.9238 14.7737C15.9645 14.6268 15.9758 14.4733 15.957 14.3221C15.9382 14.1708 15.8898 14.0248 15.8145 13.8923C15.7391 13.7598 15.6384 13.6435 15.518 13.55L15.515 13.548L13.546 12.016V6.96801C13.546 6.32701 13.026 5.80601 12.384 5.80601H11.61C10.969 5.80601 10.448 6.32601 10.448 6.96801V13.528L13.613 15.989C13.8554 16.1788 14.1632 16.2646 14.4688 16.2277C14.7744 16.1907 15.0528 16.0341 15.243 15.792L15.245 15.789Z" fill="black"/>
</g>
<defs>
<clipPath id="clip0_929_2151">
<rect width="24" height="24" fill="white"/>
</clipPath>
</defs>
</svg>
