<svg width="32" height="32" viewBox="0 0 32 32" fill="none" xmlns="http://www.w3.org/2000/svg">
<path d="M27.25 14.8125H8.96562L19.9094 5.3125C20.0844 5.15937 19.9781 4.875 19.7469 4.875H16.9813C16.8594 4.875 16.7438 4.91875 16.6531 4.99687L4.84375 15.2437C4.73559 15.3375 4.64884 15.4534 4.58939 15.5836C4.52994 15.7138 4.49918 15.8553 4.49918 15.9984C4.49918 16.1416 4.52994 16.283 4.58939 16.4133C4.64884 16.5435 4.73559 16.6594 4.84375 16.7531L16.7219 27.0625C16.7687 27.1031 16.825 27.125 16.8844 27.125H19.7437C19.975 27.125 20.0812 26.8375 19.9062 26.6875L8.96562 17.1875H27.25C27.3875 17.1875 27.5 17.075 27.5 16.9375V15.0625C27.5 14.925 27.3875 14.8125 27.25 14.8125Z" fill="white"/>
</svg>
